{
	"asset":{
		"generator":"Khronos glTF Blender I/O v4.1.63",
		"version":"2.0"
	},
	"extensionsUsed":[
		"KHR_materials_specular"
	],
	"scene":0,
	"scenes":[
		{
			"name":"Scene",
			"nodes":[
				0
			]
		}
	],
	"nodes":[
		{
			"mesh":0,
			"name":"UtahTeapot_low.001"
		}
	],
	"materials":[
		{
			"doubleSided":true,
			"extensions":{
				"KHR_materials_specular":{
					"specularTexture":{
						"index":0
					}
				}
			},
			"name":"UtahTeapot.001",
			"normalTexture":{
				"index":1
			},
			"pbrMetallicRoughness":{
				"baseColorTexture":{
					"index":2
				},
				"metallicFactor":0,
				"roughnessFactor":0.5
			}
		}
	],
	"meshes":[
		{
			"name":"meshId0_name",
			"primitives":[
				{
					"attributes":{
						"POSITION":0,
						"NORMAL":1,
						"TEXCOORD_0":2,
						"TANGENT":3
					},
					"indices":4,
					"material":0
				}
			]
		}
	],
	"textures":[
		{
			"sampler":0,
			"source":0
		},
		{
			"sampler":0,
			"source":1
		},
		{
			"sampler":0,
			"source":2
		}
	],
	"images":[
		{
			"mimeType":"image/jpeg",
			"name":"UtahTeapot_metallic-UtahTeapot_roughness",
			"uri":"UtahTeapot_metallic-UtahTeapot_roughness.jpg"
		},
		{
			"mimeType":"image/jpeg",
			"name":"UtahTeapot_normal",
			"uri":"UtahTeapot_normal.jpg"
		},
		{
			"mimeType":"image/jpeg",
			"name":"UtahTeapot_albedo",
			"uri":"UtahTeapot_albedo.jpg"
		},
		{
			"mimeType":"image/png",
			"name":"Image_0",
			"uri":"Image_0.png"
		},
		{
			"mimeType":"image/png",
			"name":"Image_1",
			"uri":"Image_1.png"
		},
		{
			"mimeType":"image/png",
			"name":"Image_2",
			"uri":"Image_2.png"
		},
		{
			"mimeType":"image/png",
			"name":"Image_3",
			"uri":"Image_3.png"
		}
	],
	"accessors":[
		{
			"bufferView":0,
			"componentType":5126,
			"count":4884,
			"max":[
				19.524505615234375,
				11.48228645324707,
				12.138251304626465
			],
			"min":[
				-19.524503707885742,
				-8.526779174804688,
				-12.138252258300781
			],
			"type":"VEC3"
		},
		{
			"bufferView":1,
			"componentType":5126,
			"count":4884,
			"type":"VEC3"
		},
		{
			"bufferView":2,
			"componentType":5126,
			"count":4884,
			"type":"VEC2"
		},
		{
			"bufferView":3,
			"componentType":5126,
			"count":4884,
			"type":"VEC4"
		},
		{
			"bufferView":4,
			"componentType":5123,
			"count":26652,
			"type":"SCALAR"
		}
	],
	"bufferViews":[
		{
			"buffer":0,
			"byteLength":58608,
			"byteOffset":0,
			"target":34962
		},
		{
			"buffer":0,
			"byteLength":58608,
			"byteOffset":58608,
			"target":34962
		},
		{
			"buffer":0,
			"byteLength":39072,
			"byteOffset":117216,
			"target":34962
		},
		{
			"buffer":0,
			"byteLength":78144,
			"byteOffset":156288,
			"target":34962
		},
		{
			"buffer":0,
			"byteLength":53304,
			"byteOffset":234432,
			"target":34963
		}
	],
	"samplers":[
		{
			"magFilter":9729,
			"minFilter":9987
		}
	],
	"buffers":[
		{
			"byteLength":287736,
			"uri":"untitled.bin"
		}
	]
}
